<svg xmlns="http://www.w3.org/2000/svg" viewBox="0 0 800 600">
  <!-- Classroom Background -->
  <g id="classroom">
    <!-- Wall -->
    <rect x="0" y="0" width="800" height="400" fill="#F0E6D2" />
    
    <!-- Floor -->
    <rect x="0" y="400" width="800" height="200" fill="#8B4513" />
    
    <!-- Chalkboard -->
    <rect x="150" y="50" width="500" height="300" fill="#004225" />
    <rect x="160" y="60" width="480" height="280" fill="#0A623D" />
    
    <!-- Window -->
    <rect x="700" y="100" width="80" height="200" fill="#87CEEB" />
    <line x1="740" y1="100" x2="740" y2="300" stroke="#A9A9A9" stroke-width="2" />
    <line x1="700" y1="200" x2="780" y2="200" stroke="#A9A9A9" stroke-width="2" />
    
    <!-- Door -->
    <rect x="50" y="150" width="80" height="250" fill="#A0522D" />
    <circle cx="120" cy="275" r="5" fill="#FFD700" />
    
    <!-- Alphabet Border -->
    <rect x="0" y="20" width="800" height="20" fill="#FFD700" />
    
    <!-- Clock -->
    <circle cx="75" cy="75" r="30" fill="#FFF" stroke="#000" stroke-width="2" />
    <line x1="75" y1="75" x2="75" y2="55" stroke="#000" stroke-width="2" />
    <line x1="75" y1="75" x2="90" y2="75" stroke="#000" stroke-width="3" />
  </g>
  
  <!-- Nature Background -->
  <g id="nature" style="display:none">
    <!-- Sky -->
    <rect x="0" y="0" width="800" height="400" fill="#87CEEB" />
    
    <!-- Ground -->
    <rect x="0" y="400" width="800" height="200" fill="#7CFC00" />
    
    <!-- Sun -->
    <circle cx="700" cy="100" r="60" fill="#FFD700" />
    
    <!-- Clouds -->
    <g>
      <ellipse cx="150" cy="100" rx="50" ry="30" fill="#FFF" />
      <ellipse cx="200" cy="90" rx="60" ry="40" fill="#FFF" />
      <ellipse cx="250" cy="100" rx="50" ry="30" fill="#FFF" />
    </g>
    <g>
      <ellipse cx="450" cy="150" rx="50" ry="30" fill="#FFF" />
      <ellipse cx="500" cy="140" rx="60" ry="40" fill="#FFF" />
      <ellipse cx="550" cy="150" rx="50" ry="30" fill="#FFF" />
    </g>
    
    <!-- Trees -->
    <g>
      <rect x="100" y="350" width="30" height="100" fill="#8B4513" />
      <ellipse cx="115" cy="300" rx="70" ry="80" fill="#228B22" />
    </g>
    <g>
      <rect x="600" y="350" width="30" height="100" fill="#8B4513" />
      <ellipse cx="615" cy="300" rx="70" ry="80" fill="#228B22" />
    </g>
    
    <!-- Flowers -->
    <g>
      <circle cx="200" cy="450" r="10" fill="#FF69B4" />
      <circle cx="250" cy="470" r="10" fill="#FF1493" />
      <circle cx="300" cy="450" r="10" fill="#FF69B4" />
      <circle cx="350" cy="470" r="10" fill="#FF1493" />
      <circle cx="400" cy="450" r="10" fill="#FF69B4" />
      <circle cx="450" cy="470" r="10" fill="#FF1493" />
      <circle cx="500" cy="450" r="10" fill="#FF69B4" />
    </g>
  </g>
  
  <!-- Space Background -->
  <g id="space" style="display:none">
    <!-- Dark Space -->
    <rect x="0" y="0" width="800" height="600" fill="#000033" />
    
    <!-- Stars -->
    <g fill="#FFF">
      <circle cx="50" cy="50" r="2" />
      <circle cx="150" cy="80" r="1" />
      <circle cx="250" cy="150" r="2" />
      <circle cx="350" cy="50" r="1" />
      <circle cx="450" cy="120" r="2" />
      <circle cx="550" cy="200" r="1" />
      <circle cx="650" cy="80" r="2" />
      <circle cx="750" cy="150" r="1" />
      <circle cx="100" cy="250" r="2" />
      <circle cx="200" cy="350" r="1" />
      <circle cx="300" cy="450" r="2" />
      <circle cx="400" cy="550" r="1" />
      <circle cx="500" cy="250" r="2" />
      <circle cx="600" cy="350" r="1" />
      <circle cx="700" cy="450" r="2" />
      <circle cx="30" cy="550" r="1" />
      <circle cx="80" cy="180" r="2" />
      <circle cx="130" cy="280" r="1" />
      <circle cx="180" cy="120" r="2" />
      <circle cx="230" cy="220" r="1" />
      <circle cx="280" cy="320" r="2" />
      <circle cx="330" cy="420" r="1" />
      <circle cx="380" cy="520" r="2" />
      <circle cx="430" cy="180" r="1" />
      <circle cx="480" cy="280" r="2" />
      <circle cx="530" cy="380" r="1" />
      <circle cx="580" cy="480" r="2" />
      <circle cx="630" cy="100" r="1" />
      <circle cx="680" cy="200" r="2" />
      <circle cx="730" cy="300" r="1" />
      <circle cx="780" cy="400" r="2" />
    </g>
    
    <!-- Planets -->
    <circle cx="600" cy="150" r="40" fill="#FF6347" />
    <circle cx="200" cy="450" r="60" fill="#4682B4" />
    <circle cx="400" cy="300" r="30" fill="#FFD700" />
    
    <!-- Comets -->
    <g>
      <ellipse cx="300" cy="100" rx="5" ry="2" fill="#FFF" />
      <line x1="300" y1="100" x2="250" y2="120" stroke="#FFF" stroke-width="1" />
    </g>
    <g>
      <ellipse cx="500" cy="400" rx="5" ry="2" fill="#FFF" />
      <line x1="500" y1="400" x2="450" y2="420" stroke="#FFF" stroke-width="1" />
    </g>
  </g>
  
  <!-- Ocean Background -->
  <g id="ocean" style="display:none">
    <!-- Sky -->
    <rect x="0" y="0" width="800" height="200" fill="#87CEEB" />
    
    <!-- Ocean Surface -->
    <rect x="0" y="200" width="800" height="50" fill="#4682B4" />
    
    <!-- Deep Ocean -->
    <rect x="0" y="250" width="800" height="350" fill="#000080" />
    
    <!-- Sun -->
    <circle cx="700" cy="100" r="40" fill="#FFD700" />
    
    <!-- Clouds -->
    <g>
      <ellipse cx="200" cy="80" rx="40" ry="20" fill="#FFF" />
      <ellipse cx="240" cy="70" rx="40" ry="25" fill="#FFF" />
      <ellipse cx="280" cy="80" rx="40" ry="20" fill="#FFF" />
    </g>
    
    <!-- Waves -->
    <path d="M0,220 Q50,200 100,220 Q150,240 200,220 Q250,200 300,220 Q350,240 400,220 Q450,200 500,220 Q550,240 600,220 Q650,200 700,220 Q750,240 800,220" fill="none" stroke="#FFFFFF" stroke-width="2" />
    
    <!-- Fish -->
    <g>
      <path d="M300,350 Q320,330 340,350 Q320,370 300,350 Z" fill="#FF4500" />
      <circle cx="310" cy="350" r="3" fill="#000" />
      <path d="M300,350 L290,360 L290,340 Z" fill="#FF4500" />
    </g>
    <g>
      <path d="M500,400 Q520,380 540,400 Q520,420 500,400 Z" fill="#4169E1" />
      <circle cx="510" cy="400" r="3" fill="#000" />
      <path d="M500,400 L490,410 L490,390 Z" fill="#4169E1" />
    </g>
    <g>
      <path d="M400,300 Q420,280 440,300 Q420,320 400,300 Z" fill="#FFD700" />
      <circle cx="410" cy="300" r="3" fill="#000" />
      <path d="M400,300 L390,310 L390,290 Z" fill="#FFD700" />
    </g>
    
    <!-- Seaweed -->
    <path d="M100,550 Q110,530 100,510 Q90,490 100,470 Q110,450 100,430" fill="none" stroke="#008000" stroke-width="5" />
    <path d="M150,550 Q160,520 150,490 Q140,460 150,430" fill="none" stroke="#008000" stroke-width="5" />
    <path d="M700,550 Q710,530 700,510 Q690,490 700,470 Q710,450 700,430" fill="none" stroke="#008000" stroke-width="5" />
    <path d="M650,550 Q660,520 650,490 Q640,460 650,430" fill="none" stroke="#008000" stroke-width="5" />
  </g>
</svg>
