<svg xmlns="http://www.w3.org/2000/svg" viewBox="0 0 300 300">
  <!-- Teacher Character -->
  <g id="teacher">
    <circle cx="100" cy="80" r="40" fill="#FFB6C1" />
    <circle cx="85" cy="70" r="5" fill="#000" />
    <circle cx="115" cy="70" r="5" fill="#000" />
    <path d="M90 90 Q100 100 110 90" stroke="#000" stroke-width="2" fill="none" />
    <rect x="60" y="120" width="80" height="100" fill="#FF69B4" />
    <rect x="60" y="220" width="15" height="40" fill="#FFB6C1" />
    <rect x="125" y="220" width="15" height="40" fill="#FFB6C1" />
    <rect x="40" y="130" width="20" height="60" fill="#FFB6C1" />
    <rect x="140" y="130" width="20" height="60" fill="#FFB6C1" />
    <circle cx="100" cy="60" r="10" fill="#FFC0CB" />
  </g>

  <!-- Student Character -->
  <g id="student">
    <circle cx="220" cy="80" r="35" fill="#ADD8E6" />
    <circle cx="210" cy="70" r="4" fill="#000" />
    <circle cx="230" cy="70" r="4" fill="#000" />
    <path d="M215 85 Q220 90 225 85" stroke="#000" stroke-width="2" fill="none" />
    <rect x="190" y="115" width="60" height="85" fill="#4682B4" />
    <rect x="190" y="200" width="15" height="40" fill="#ADD8E6" />
    <rect x="235" y="200" width="15" height="40" fill="#ADD8E6" />
    <rect x="175" y="125" width="15" height="50" fill="#ADD8E6" />
    <rect x="250" y="125" width="15" height="50" fill="#ADD8E6" />
    <rect x="205" y="40" width="30" height="10" fill="#8B4513" />
    <rect x="200" y="50" width="40" height="5" fill="#8B4513" />
  </g>
</svg>
